<?xml version="1.0" standalone="no"?>
<!DOCTYPE svg PUBLIC "-//W3C//DTD SVG 20010904//EN"
 "http://www.w3.org/TR/2001/REC-SVG-20010904/DTD/svg10.dtd">
<svg version="1.0" xmlns="http://www.w3.org/2000/svg"
 width="128.000000pt" height="115.000000pt" viewBox="0 0 128.000000 115.000000"
 preserveAspectRatio="xMidYMid meet">

<g transform="translate(0.000000,115.000000) scale(0.100000,-0.100000)"
fill="#000000" stroke="none">
<path d="M41 1003 l0 -148 94 -77 c52 -43 98 -78 102 -78 4 0 32 39 61 86 l52
85 -87 40 -88 40 -60 99 c-33 55 -63 100 -67 100 -5 0 -8 -66 -7 -147z m109
-55 c0 -4 38 -25 85 -47 l85 -40 -41 -65 c-23 -36 -44 -66 -48 -66 -13 0 -156
122 -163 138 -4 9 -7 64 -7 122 l0 105 44 -70 c25 -38 45 -73 45 -77z"/>
<path d="M1170 1049 l-62 -101 -84 -38 c-46 -22 -84 -42 -84 -45 0 -4 94 -159
104 -172 1 -2 46 34 99 78 l97 81 0 149 c0 82 -2 149 -4 149 -2 0 -32 -45 -66
-101z m46 -175 c-7 -25 -153 -147 -169 -141 -7 3 -29 32 -49 66 l-38 60 84 39
c79 38 85 42 127 110 l44 71 3 -92 c2 -51 1 -101 -2 -113z"/>
<path d="M528 1098 c-18 -16 -263 -406 -264 -422 0 -16 96 -210 110 -218 6 -4
126 -8 266 -8 140 0 260 4 266 8 14 8 110 202 110 218 -1 16 -246 406 -264
422 -10 8 -50 12 -112 12 -62 0 -102 -4 -112 -12z m207 -16 c6 -4 68 -97 137
-208 l126 -201 -51 -101 -52 -102 -255 0 -255 0 -52 102 -51 101 126 201 c69
111 131 204 136 208 6 4 49 8 96 8 47 0 90 -4 95 -8z"/>
<path d="M443 728 l-41 -54 40 -67 40 -67 54 0 55 0 -3 118 -3 117 -51 3 -51
3 -40 -53z"/>
<path d="M697 773 c-4 -3 -7 -57 -7 -120 l0 -113 54 0 54 0 40 67 40 67 -40
53 c-39 51 -42 53 -88 53 -25 0 -50 -3 -53 -7z"/>
<path d="M30 176 l0 -116 29 0 c27 0 30 3 33 37 3 36 5 38 43 41 51 4 85 35
85 77 0 51 -29 69 -116 73 l-74 4 0 -116z m123 53 c16 -26 1 -49 -33 -49 -28
0 -30 3 -30 36 0 32 2 35 26 32 15 -2 32 -10 37 -19z"/>
<path d="M262 194 c3 -86 5 -98 27 -115 33 -27 123 -27 150 0 22 22 34 84 29
156 -3 46 -5 50 -30 53 l-28 3 0 -83 c0 -89 -8 -108 -45 -108 -37 0 -45 20
-45 107 l0 83 -31 0 -31 0 4 -96z"/>
<path d="M520 175 l0 -115 30 0 30 0 0 73 1 72 22 -44 c30 -60 51 -61 79 -3
l23 47 3 -73 c3 -69 4 -72 27 -72 l25 0 0 115 0 115 -30 0 c-26 0 -33 -7 -59
-57 l-29 -58 -26 58 c-24 54 -28 57 -61 57 l-35 0 0 -115z"/>
<path d="M830 175 l0 -115 69 0 c54 0 74 4 95 21 33 26 35 71 4 94 -16 12 -19
19 -10 22 6 3 12 20 12 39 0 42 -24 54 -111 54 l-59 0 0 -115z m110 60 c17
-20 4 -35 -31 -35 -24 0 -29 4 -29 25 0 20 5 25 24 25 13 0 29 -7 36 -15z m15
-105 c0 -22 -5 -25 -37 -28 -36 -3 -38 -2 -38 28 0 30 2 31 38 28 32 -3 37 -6
37 -28z"/>
<path d="M1120 268 c-5 -13 -25 -65 -44 -115 l-34 -93 27 0 c20 0 31 7 39 25
10 21 19 25 52 25 34 0 42 -4 50 -25 7 -19 17 -25 39 -25 l30 0 -25 68 c-14
37 -34 87 -43 112 -14 39 -21 45 -49 48 -25 3 -34 -1 -42 -20z m57 -83 c11
-34 11 -35 -17 -35 -28 0 -28 1 -17 35 6 19 13 35 17 35 4 0 11 -16 17 -35z"/>
</g>
</svg>
